<svg width="181" height="67" viewBox="0 0 181 67" fill="none" xmlns="http://www.w3.org/2000/svg">
<g clip-path="url(#clip0_323_52)">
<path d="M77.8525 54.4961C77.8525 52.8791 76.8083 51.9227 75.515 51.9227C74.2217 51.9227 73.1775 52.8791 73.1775 54.4961C73.1775 56.1132 74.2447 57.1378 75.515 57.1378C76.7853 57.1378 77.8525 56.1132 77.8525 54.4961ZM75.7872 65.7018C77.8976 65.7018 79.2814 64.6084 79.2814 63.4464C79.2814 62.4214 78.4874 62.0804 77.0575 62.0804H75.1522C74.721 62.0804 74.1986 62.0343 73.7223 61.8981C72.9283 62.4671 72.5877 63.1275 72.5877 63.7653C72.5877 64.9494 73.7905 65.7018 75.7872 65.7018ZM72.5656 61.5108V61.4199C72.0208 61.0779 71.5899 60.4859 71.5899 59.6205C71.5899 58.6865 72.2249 57.9579 72.7927 57.5706V57.4797C72.0662 56.8876 71.3628 55.8173 71.3628 54.4961C71.3628 52.082 73.269 50.5559 75.515 50.5559C76.1279 50.5559 76.6717 50.6699 77.0806 50.8295H80.9154V52.2639H78.6464C79.1679 52.765 79.554 53.6082 79.554 54.5414C79.554 56.9101 77.761 58.3908 75.515 58.3908C74.9705 58.3908 74.3573 58.2546 73.8589 58.0035C73.4731 58.3453 73.1555 58.7096 73.1555 59.3248C73.1555 60.0308 73.6088 60.5311 75.1071 60.5311H77.2395C79.8032 60.5311 81.0965 61.329 81.0965 63.1732C81.0965 65.2228 78.9411 67 75.515 67C72.8148 67 70.9546 65.9289 70.9546 64.0163C70.9546 63.0823 71.5669 62.1944 72.5656 61.5108Z" fill="#FF7547"/>
<path d="M88.2228 60.6683C89.289 60.6683 90.1745 60.1439 91.2407 59.1877V56.1132C87.5424 56.5688 86.2945 57.4797 86.2945 58.8919C86.2945 60.1439 87.1345 60.6683 88.2228 60.6683ZM91.2407 54.8833C91.2407 53.4711 90.7643 52.1045 88.9717 52.1045C87.6783 52.1045 86.5437 52.6967 85.6822 53.2887L84.9327 51.9911C85.9538 51.3307 87.4973 50.5559 89.2669 50.5559C91.9671 50.5559 93.1018 52.3556 93.1018 55.1113V61.8981H91.5583L91.3993 60.5768H91.3542C90.288 61.4421 89.0628 62.1713 87.7014 62.1713C85.8412 62.1713 84.4564 61.0093 84.4564 59.0281C84.4564 56.6144 86.5437 55.4071 91.2407 54.8833Z" fill="#FF7547"/>
<path d="M98.3578 52.3556H96.7247V50.9434L98.449 50.8295L98.6755 47.7318H100.241V50.8295H103.213V52.3556H100.241V58.5047C100.241 59.8713 100.672 60.6452 101.943 60.6452C102.328 60.6452 102.828 60.4859 103.19 60.3497L103.554 61.7616C102.941 61.9665 102.192 62.1713 101.512 62.1713C99.1518 62.1713 98.3578 60.6683 98.3578 58.4815V52.3556Z" fill="#FF7547"/>
<path d="M113.803 55.5441C113.803 53.2887 112.805 52.0368 111.081 52.0368C109.538 52.0368 108.131 53.3118 107.904 55.5441H113.803ZM111.035 50.5559C113.849 50.5559 115.437 52.5833 115.437 55.7491C115.437 56.1362 115.414 56.5003 115.369 56.7737H107.927C108.063 59.1652 109.492 60.6683 111.602 60.6683C112.646 60.6683 113.531 60.3265 114.348 59.8029L115.006 61.0324C114.053 61.6479 112.873 62.1713 111.376 62.1713C108.426 62.1713 106.089 60.0077 106.089 56.3864C106.089 52.765 108.516 50.5559 111.035 50.5559Z" fill="#FF7547"/>
<path d="M118.379 50.8295H120.285L121.918 57.2286C122.169 58.2767 122.373 59.2792 122.576 60.3041H122.667C122.917 59.2792 123.144 58.2546 123.416 57.2286L125.118 50.8295H126.933L128.657 57.2286C128.93 58.2767 129.179 59.2792 129.429 60.3041H129.52C129.769 59.2792 129.974 58.2767 130.2 57.2286L131.811 50.8295H133.581L130.631 61.8981H128.363L126.774 55.9535C126.502 54.9064 126.298 53.8809 126.026 52.765H125.935C125.685 53.8809 125.459 54.9289 125.163 55.9766L123.621 61.8981H121.442L118.379 50.8295Z" fill="#FF7547"/>
<path d="M140.403 60.6683C141.469 60.6683 142.354 60.1439 143.421 59.1877V56.1132C139.722 56.5688 138.475 57.4797 138.475 58.8919C138.475 60.1439 139.314 60.6683 140.403 60.6683ZM143.421 54.8833C143.421 53.4711 142.945 52.1045 141.152 52.1045C139.858 52.1045 138.724 52.6967 137.862 53.2887L137.113 51.9911C138.134 51.3307 139.677 50.5559 141.446 50.5559C144.147 50.5559 145.281 52.3556 145.281 55.1113V61.8981H143.738L143.58 60.5768H143.534C142.467 61.4421 141.242 62.1713 139.881 62.1713C138.02 62.1713 136.637 61.0093 136.637 59.0281C136.637 56.6144 138.724 55.4071 143.421 54.8833Z" fill="#FF7547"/>
<path d="M150.311 65.1097C151.559 65.1097 152.354 64.1073 152.807 62.7403L153.057 61.9212L148.633 50.8295H150.561L152.807 56.9564C153.148 57.9126 153.534 59.0515 153.874 60.0761H153.965C154.282 59.0737 154.6 57.9347 154.894 56.9564L156.869 50.8295H158.684L154.532 62.8091C153.76 64.9957 152.625 66.658 150.402 66.658C149.903 66.658 149.472 66.5671 149.109 66.4301L149.472 64.9494C149.699 65.0178 150.04 65.1097 150.311 65.1097Z" fill="#FF7547"/>
<path d="M13.181 58.0677C15.0206 58.8669 16.4209 59.2804 18.2881 59.2804C20.0452 59.2804 20.7314 58.619 20.7314 57.847C20.7314 56.9927 19.8802 56.6068 17.5739 56.111C14.3616 55.3941 12.0278 54.3472 12.0278 51.4532C12.0278 48.7523 14.2517 46.8782 17.7114 46.8782C20.0452 46.8782 21.912 47.4295 23.532 48.0908L22.2689 50.902C20.8137 50.351 19.1117 49.9375 17.629 49.9375C16.1736 49.9375 15.4323 50.4613 15.4323 51.2604C15.4323 52.0871 16.3386 52.4731 18.7273 52.9692C22.1866 53.6855 24.191 54.8982 24.191 57.6264C24.191 60.4653 22.0218 62.3394 18.2054 62.3394C15.6245 62.3394 13.9496 61.981 11.7532 60.906L13.181 58.0677Z" fill="#40A9D9"/>
<path d="M50.6049 53.7681V62.1188H46.7883V53.7681C46.7883 51.4532 45.6353 50.3231 43.5486 50.3231C42.2856 50.3231 41.3796 50.7642 40.5831 51.5083C40.7207 51.9219 40.7478 52.4731 40.7478 53.8233V62.1188H36.9318V53.7681C36.9318 51.4811 35.9158 50.3231 33.9389 50.3231C32.5935 50.3231 31.5227 50.7642 30.7266 51.5083V62.1188H26.8824V47.1539H30.7266V48.0909C31.7973 47.3193 33.1427 46.8782 34.5979 46.8782C36.9041 46.8782 38.5239 47.457 39.5396 48.7801C40.803 47.5948 42.4503 46.8782 44.2076 46.8782C48.6002 46.8782 50.6049 48.9177 50.6049 53.7681Z" fill="#40A9D9"/>
<path d="M54.4227 58.0677C56.262 58.8669 57.6626 59.2804 59.5297 59.2804C61.2868 59.2804 61.9729 58.619 61.9729 57.847C61.9729 56.9927 61.1218 56.6068 58.8156 56.111C55.6031 55.3941 53.2694 54.3472 53.2694 51.4532C53.2694 48.7523 55.4933 46.8782 58.9528 46.8782C61.2868 46.8782 63.1536 47.4295 64.7737 48.0908L63.5107 50.902C62.0552 50.351 60.3534 49.9375 58.8704 49.9375C57.4153 49.9375 56.674 50.4613 56.674 51.2604C56.674 52.0871 57.5803 52.4731 59.9688 52.9692C63.428 53.6855 65.4327 54.8982 65.4327 57.6264C65.4327 60.4653 63.2634 62.3394 59.4468 62.3394C56.8661 62.3394 55.1911 61.981 52.9946 60.906L54.4227 58.0677Z" fill="#40A9D9"/>
<path d="M180.487 12.8421L173.603 32.3237C173.603 32.3237 171.259 38.646 163.716 38.4253C163.716 38.4253 155.623 38.8663 148.043 37.0286C148.043 37.0286 145.113 41.8437 138.155 41.8803C133.832 41.9032 131.125 40.5571 131.125 40.5571C129.806 39.8219 131.271 38.9398 131.271 38.9398L137.039 35.7788C137.039 35.7788 138.485 34.6393 136.947 34.3084C135.409 33.9775 130.832 32.6175 129.513 28.4272C129.513 28.4272 128.952 12.9646 129.098 11.8374C129.245 10.7102 129.538 5.6377 135.958 3.57925L147.066 2.45203L170.454 0.0994287C170.454 0.0994287 173.042 -0.120949 174.213 0.0994287C174.213 0.0994287 181.586 1.63131 180.964 10.8938L180.487 12.8421Z" fill="#196080"/>
<path d="M178.272 12.4992C177.329 16.4945 172.857 27.9931 172.181 28.9664C171.33 30.1918 169.758 30.3754 168.806 30.3754C167.854 30.3754 166.349 30.0955 164.689 29.2606C163.448 28.6358 160.92 27.2357 158.635 25.6674C156.35 24.0994 153.178 21.4678 149.846 18.5273C146.515 15.5867 144.038 14.0117 139.398 14.3125C134.27 14.645 130.71 17.7411 130.71 17.7411C130.71 17.7411 130.447 15.8561 130.799 11.2614C131.193 6.11041 138.674 4.85369 138.674 4.85369C138.674 4.85369 161.425 2.30509 170.658 1.52079C170.658 1.52079 180.745 2.01094 178.272 12.4992Z" fill="white"/>
<path d="M164.961 28.6723C163.684 28.0438 161.25 26.6138 158.906 25.0455C156.563 23.4772 153.487 20.8799 150.069 17.9393C146.651 14.9987 144.126 13.0983 138.986 13.7733C133.761 14.4595 130.667 17.351 130.667 17.351C130.667 17.351 130.396 15.34 130.805 10.8327C131.271 5.68678 138.302 4.55956 138.302 4.55956C138.302 4.55956 161.641 2.01096 171.113 1.22697C171.113 1.22697 181.08 1.63163 178.924 12.205C178.241 15.5525 174.718 23.8702 172.382 28.6232C172.382 28.6232 170.234 31.27 164.961 28.6723Z" fill="#40A9D9"/>
<path d="M17.1729 36.3301C16.8114 36.7835 16.3334 37.173 15.7377 37.4988C15.1419 37.8245 14.4557 38.0788 13.6799 38.2593C12.903 38.4417 12.1177 38.5316 11.3241 38.5316C9.69944 38.5316 8.38122 38.3138 7.37082 37.8791C6.35966 37.4443 5.56539 36.8291 4.98835 36.0312C4.73523 35.6693 4.46452 35.4607 4.17595 35.4061C3.88637 35.3517 3.63439 35.3245 3.4179 35.3245H1.46815C1.03503 35.3245 0.673501 35.4694 0.385038 35.7593C0.0958386 36.0501 -0.0303398 36.3934 0.00613367 36.792C0.0416213 37.4443 0.321703 38.1428 0.845517 38.8847C1.36834 39.6279 2.11814 40.3168 3.09283 40.9505C4.0675 41.5846 5.24033 42.1192 6.61264 42.5539C7.98433 42.9885 9.55478 43.2065 11.3241 43.2065C13.0927 43.2065 14.6723 42.9706 16.0626 42.4994C17.452 42.0292 18.635 41.4124 19.6096 40.6515C20.5843 39.8903 21.3334 39.0028 21.8568 37.9879C22.38 36.9741 22.6421 35.9226 22.6421 34.8352C22.6421 33.8933 22.4975 32.9965 22.209 32.1445C21.9198 31.2937 21.4321 30.5135 20.747 29.8074C20.0608 29.1004 19.1577 28.4668 18.0391 27.9044C16.9199 27.3433 15.5294 26.8814 13.8693 26.5185C12.2803 26.1569 10.9536 25.8485 9.88922 25.5946C8.82386 25.3413 7.9666 25.0601 7.31697 24.7517C6.66687 24.4445 6.19726 24.0817 5.90879 23.665C5.61959 23.2483 5.47568 22.6958 5.47568 22.0071C5.47568 20.9198 5.99014 20.0683 7.01903 19.4522C8.04792 18.836 9.39252 18.5276 11.0533 18.5276C12.6781 18.5276 13.9506 18.7369 14.8711 19.1529C15.7919 19.5703 16.4864 20.0867 16.9559 20.7022C17.2083 21.0287 17.4885 21.2374 17.7955 21.3273C18.1017 21.4182 18.3641 21.4634 18.5807 21.4634H20.3677C20.7647 21.4634 21.1165 21.319 21.4237 21.0287C21.73 20.739 21.8656 20.3951 21.8301 19.9958C21.7936 19.3436 21.5405 18.6637 21.0717 17.9576C20.6021 17.2506 19.9158 16.5898 19.0139 15.973C18.111 15.3574 17.0008 14.8502 15.6835 14.4509C14.3653 14.0526 12.822 13.8528 11.0533 13.8528C9.28406 13.8528 7.74062 14.0706 6.42325 14.5054C5.10478 14.9401 4.0133 15.5382 3.14704 16.2994C2.28043 17.0603 1.63081 17.9304 1.19731 18.9088C0.764192 19.8869 0.547692 20.9198 0.547692 22.0071C0.547692 23.9281 1.1341 25.6038 2.30766 27.0349C3.48048 28.4668 5.52953 29.4905 8.45394 30.106C10.006 30.4324 11.369 30.7405 12.5424 31.0299C13.7152 31.3209 14.6817 31.6281 15.4397 31.9545C16.1979 32.2806 16.7666 32.6707 17.1458 33.1229C17.5248 33.5763 17.7141 34.1472 17.7141 34.8352C17.7141 35.3789 17.5334 35.877 17.1729 36.3301ZM48.3112 15.7016C48.2033 15.4119 48.0311 15.1222 47.7967 14.8321C47.5614 14.5418 47.1743 14.3965 46.6327 14.3965H45.4413C44.8997 14.3965 44.5113 14.5418 44.277 14.8321C44.0416 15.1222 43.8707 15.4119 43.7625 15.7016L37.264 33.8568L31.1987 15.7016C31.0907 15.4119 30.8918 15.1222 30.6033 14.8321C30.3137 14.5418 29.8991 14.3965 29.3574 14.3965H27.5705C27.2093 14.3965 26.902 14.5244 26.65 14.7777C26.3969 15.0316 26.2708 15.3394 26.2708 15.7016C26.2708 15.8466 26.2885 15.9917 26.325 16.1364L34.6104 41.1407C34.7543 41.5754 34.9439 41.9383 35.1792 42.228C35.4136 42.5184 35.7656 42.6628 36.2353 42.6628H37.9138C38.3825 42.6628 38.7349 42.5093 38.9699 42.2008C39.2043 41.893 39.4115 41.5401 39.5926 41.1407L46.0368 23.0944L52.4811 41.1407C52.6615 41.5401 52.8688 41.893 53.1041 42.2008C53.3385 42.5093 53.6905 42.6628 54.1602 42.6628H55.8387C56.3075 42.6628 56.6595 42.5184 56.8948 42.228C57.1289 41.9383 57.3188 41.5754 57.4633 41.1407L65.7488 16.1364C65.7844 15.9917 65.803 15.8466 65.803 15.7016C65.803 15.3394 65.6762 15.0316 65.4239 14.7777C65.1709 14.5244 64.8639 14.3965 64.5034 14.3965H62.7164C62.1748 14.3965 61.759 14.5418 61.4707 14.8321C61.1814 15.1222 60.9833 15.4119 60.8751 15.7016L54.8097 33.8568L48.3112 15.7016ZM76.7954 15.8647C76.7954 15.4664 76.6509 15.1222 76.3623 14.8321C76.0727 14.5418 75.7304 14.3965 75.3333 14.3965H73.3299C72.9321 14.3965 72.5895 14.5418 72.3009 14.8321C72.0113 15.1222 71.8675 15.4664 71.8675 15.8647V41.1952C71.8675 41.5945 72.0113 41.9383 72.3009 42.228C72.5895 42.5184 72.9321 42.6628 73.3299 42.6628H75.3333C75.7304 42.6628 76.0727 42.5184 76.3623 42.228C76.6509 41.9383 76.7954 41.5945 76.7954 41.1952V15.8647ZM77.337 5.53605C77.337 5.13835 77.1922 4.79449 76.9039 4.5035C76.6143 4.21378 76.2721 4.06876 75.8749 4.06876H72.7883C72.3905 4.06876 72.0479 4.21378 71.7593 4.5035C71.4697 4.79449 71.3259 5.13835 71.3259 5.53605V8.63464C71.3259 9.0336 71.4697 9.37778 71.7593 9.6675C72.0479 9.95817 72.3905 10.1029 72.7883 10.1029H75.8749C76.2721 10.1029 76.6143 9.95817 76.9039 9.6675C77.1922 9.37778 77.337 9.0336 77.337 8.63464V5.53605ZM92.8248 11.9508C92.8248 11.2627 92.8873 10.619 93.0144 10.0212C93.1406 9.42306 93.3664 8.90663 93.691 8.47189C94.0159 8.03715 94.4762 7.70215 95.072 7.46626C95.6679 7.23132 96.4345 7.11258 97.3735 7.11258H100.244C100.641 7.11258 100.983 6.96819 101.273 6.67784C101.561 6.38812 101.706 6.04425 101.706 5.64497V3.90601C101.706 3.50768 101.561 3.1635 101.273 2.87346C100.983 2.58311 100.641 2.43777 100.244 2.43777H96.8319C93.691 2.43777 91.4166 3.20815 90.0088 4.74826C88.6006 6.28901 87.8969 8.59886 87.8969 11.6791V14.3965H83.3478C82.9501 14.3965 82.6075 14.5418 82.3189 14.8321C82.0296 15.1222 81.8857 15.4664 81.8857 15.8647V17.6036C81.8857 18.0029 82.0296 18.3468 82.3189 18.6365C82.6075 18.9269 82.9501 19.0713 83.3478 19.0713H87.8969V41.1952C87.8969 41.5945 88.0407 41.9383 88.33 42.228C88.6183 42.5184 88.9612 42.6628 89.359 42.6628H91.3624C91.7595 42.6628 92.1021 42.5184 92.3914 42.228C92.6803 41.9383 92.8248 41.5945 92.8248 41.1952V19.0713H99.7022C100.099 19.0713 100.442 18.9269 100.731 18.6365C101.019 18.3468 101.165 18.0029 101.165 17.6036V15.8647C101.165 15.4664 101.019 15.1222 100.731 14.8321C100.442 14.5418 100.099 14.3965 99.7022 14.3965H92.8248V11.9508ZM113.403 19.0713H120.28C120.677 19.0713 121.02 18.9269 121.309 18.6365C121.598 18.3468 121.743 18.0029 121.743 17.6036V15.8647C121.743 15.4664 121.598 15.1222 121.309 14.8321C121.02 14.5418 120.677 14.3965 120.28 14.3965H113.403V5.53605C113.403 5.13835 113.258 4.79449 112.97 4.5035C112.68 4.21378 112.338 4.06876 111.941 4.06876H109.937C109.539 4.06876 109.197 4.21378 108.908 4.5035C108.619 4.79449 108.475 5.13835 108.475 5.53605V14.3965H104.468C104.07 14.3965 103.727 14.5418 103.439 14.8321C103.149 15.1222 103.006 15.4664 103.006 15.8647V17.6036C103.006 18.0029 103.149 18.3468 103.439 18.6365C103.727 18.9269 104.07 19.0713 104.468 19.0713H108.475V33.1501C108.475 36.231 109.179 38.5861 110.587 40.2167C111.995 41.8478 114.269 42.6628 117.41 42.6628H120.822C121.219 42.6628 121.562 42.5184 121.851 42.228C122.139 41.9383 122.284 41.5945 122.284 41.1952V39.4556C122.284 39.0573 122.139 38.7131 121.851 38.4227C121.562 38.1333 121.219 37.9879 120.822 37.9879H117.952C117.013 37.9879 116.246 37.8708 115.65 37.6349C115.055 37.3997 114.594 37.064 114.269 36.6292C113.945 36.1939 113.719 35.6775 113.593 35.0803C113.466 34.4822 113.403 33.8388 113.403 33.1501V19.0713Z" fill="#E9F6FB"/>
</g>
<defs>
<clipPath id="clip0_323_52">
<rect width="181" height="67" fill="white"/>
</clipPath>
</defs>
</svg>
