<svg width="189" height="70" viewBox="0 0 189 70" fill="none" xmlns="http://www.w3.org/2000/svg">
<g clip-path="url(#clip0_323_19)">
<path d="M81.2935 56.9363C81.2935 55.2468 80.2032 54.2476 78.8527 54.2476C77.5022 54.2476 76.412 55.2468 76.412 56.9363C76.412 58.6257 77.5263 59.6962 78.8527 59.6962C80.1792 59.6962 81.2935 58.6257 81.2935 56.9363ZM79.137 68.6437C81.3406 68.6437 82.7856 67.5013 82.7856 66.2873C82.7856 65.2164 81.9566 64.8601 80.4634 64.8601H78.4739C78.0237 64.8601 77.4782 64.8119 76.9808 64.6696C76.1517 65.2641 75.796 65.9541 75.796 66.6204C75.796 67.8576 77.052 68.6437 79.137 68.6437ZM75.7729 64.2651V64.1701C75.2041 63.8128 74.7541 63.1942 74.7541 62.2901C74.7541 61.3142 75.4172 60.553 76.0101 60.1484V60.0534C75.2515 59.4348 74.517 58.3166 74.517 56.9363C74.517 54.4141 76.5075 52.8196 78.8527 52.8196C79.4927 52.8196 80.0606 52.9387 80.4875 53.1054H84.4919V54.604H82.1226C82.6671 55.1276 83.0702 56.0086 83.0702 56.9835C83.0702 59.4583 81.198 61.0053 78.8527 61.0053C78.2842 61.0053 77.6439 60.863 77.1234 60.6006C76.7206 60.9578 76.3889 61.3384 76.3889 61.9812C76.3889 62.7187 76.8622 63.2415 78.4268 63.2415H80.6535C83.3304 63.2415 84.6809 64.0751 84.6809 66.0018C84.6809 68.1432 82.4302 70 78.8527 70C76.0332 70 74.0908 68.8809 74.0908 66.8827C74.0908 65.9069 74.7301 64.9793 75.7729 64.2651Z" fill="#F35F31"/>
<path d="M92.1222 63.3847C93.2355 63.3847 94.1601 62.8369 95.2734 61.8378V58.6257C91.4117 59.1016 90.1086 60.0534 90.1086 61.5288C90.1086 62.8369 90.9858 63.3847 92.1222 63.3847ZM95.2734 57.3407C95.2734 55.8653 94.7761 54.4375 92.9041 54.4375C91.5536 54.4375 90.3688 55.0562 89.4693 55.6748L88.6866 54.319C89.7529 53.629 91.3646 52.8195 93.2124 52.8195C96.032 52.8195 97.2168 54.6999 97.2168 57.579V64.6696H95.6051L95.4391 63.2891H95.392C94.2787 64.1932 92.9993 64.9551 91.5777 64.9551C89.6353 64.9551 88.1893 63.741 88.1893 61.6711C88.1893 59.1493 90.3688 57.888 95.2734 57.3407Z" fill="#F35F31"/>
<path d="M102.705 54.6999H101V53.2244L102.8 53.1054L103.037 49.869H104.672V53.1054H107.775V54.6999H104.672V61.1242C104.672 62.552 105.122 63.3606 106.449 63.3606C106.851 63.3606 107.373 63.1942 107.751 63.0519L108.131 64.527C107.491 64.7411 106.709 64.9551 105.999 64.9551C103.534 64.9551 102.705 63.3847 102.705 61.1001V54.6999Z" fill="#F35F31"/>
<path d="M118.833 58.0311C118.833 55.6748 117.79 54.3668 115.991 54.3668C114.379 54.3668 112.91 55.6989 112.674 58.0311H118.833ZM115.943 52.8195C118.881 52.8195 120.539 54.9378 120.539 58.2453C120.539 58.6497 120.515 59.0302 120.468 59.3157H112.697C112.839 61.8143 114.331 63.3847 116.535 63.3847C117.624 63.3847 118.549 63.0277 119.402 62.4806L120.089 63.7652C119.093 64.4082 117.862 64.9551 116.298 64.9551C113.218 64.9551 110.778 62.6946 110.778 58.9112C110.778 55.1276 113.313 52.8195 115.943 52.8195Z" fill="#F35F31"/>
<path d="M123.611 53.1054H125.602L127.307 59.791C127.568 60.8861 127.781 61.9334 127.994 63.0043H128.089C128.35 61.9334 128.587 60.863 128.871 59.791L130.648 53.1054H132.543L134.344 59.791C134.628 60.8861 134.889 61.9334 135.15 63.0043H135.244C135.505 61.9334 135.718 60.8861 135.955 59.791L137.637 53.1054H139.485L136.405 64.6696H134.036L132.377 58.4589C132.093 57.3649 131.88 56.2935 131.596 55.1276H131.501C131.24 56.2935 131.004 57.3884 130.695 58.483L129.084 64.6696H126.81L123.611 53.1054Z" fill="#F35F31"/>
<path d="M146.609 63.3847C147.722 63.3847 148.646 62.8369 149.76 61.8378V58.6257C145.897 59.1016 144.595 60.0534 144.595 61.5288C144.595 62.8369 145.471 63.3847 146.609 63.3847ZM149.76 57.3407C149.76 55.8653 149.262 54.4375 147.391 54.4375C146.04 54.4375 144.855 55.0562 143.955 55.6748L143.173 54.319C144.239 53.629 145.85 52.8195 147.698 52.8195C150.518 52.8195 151.702 54.6999 151.702 57.579V64.6696H150.092L149.926 63.2891H149.878C148.764 64.1932 147.485 64.9551 146.063 64.9551C144.121 64.9551 142.676 63.741 142.676 61.6711C142.676 59.1493 144.855 57.888 149.76 57.3407Z" fill="#F35F31"/>
<path d="M156.954 68.0251C158.258 68.0251 159.088 66.9777 159.561 65.5495L159.821 64.6938L155.202 53.1054H157.216L159.561 59.5067C159.917 60.5057 160.32 61.6956 160.674 62.7661H160.77C161.101 61.7188 161.433 60.5288 161.74 59.5067L163.802 53.1054H165.698L161.362 65.6214C160.556 67.9059 159.371 69.6427 157.05 69.6427C156.528 69.6427 156.078 69.5477 155.699 69.4045L156.078 67.8576C156.315 67.9291 156.671 68.0251 156.954 68.0251Z" fill="#F35F31"/>
<path d="M13.7637 60.6677C15.6846 61.5028 17.1468 61.9348 19.0965 61.9348C20.9313 61.9348 21.6478 61.2437 21.6478 60.4372C21.6478 59.5446 20.759 59.1415 18.3507 58.6234C14.9965 57.8744 12.5595 56.7807 12.5595 53.7571C12.5595 50.9352 14.8817 48.9772 18.4943 48.9772C20.9313 48.9772 22.8806 49.5532 24.5721 50.2442L23.2532 53.1811C21.7337 52.6056 19.9565 52.1735 18.4082 52.1735C16.8885 52.1735 16.1145 52.7207 16.1145 53.5556C16.1145 54.4194 17.0608 54.8227 19.555 55.341C23.1672 56.0893 25.2603 57.3564 25.2603 60.2067C25.2603 63.1727 22.9952 65.1307 19.0101 65.1307C16.3152 65.1307 14.5662 64.7562 12.2727 63.6331L13.7637 60.6677Z" fill="#1F769D"/>
<path d="M52.8415 56.1756V64.9002H48.8563V56.1756C48.8563 53.7571 47.6524 52.5764 45.4734 52.5764C44.1546 52.5764 43.2086 53.0372 42.3769 53.8146C42.5205 54.2467 42.5488 54.8227 42.5488 56.2333V64.9002H38.5642V56.1756C38.5642 53.7862 37.5032 52.5764 35.4389 52.5764C34.0341 52.5764 32.916 53.0372 32.0846 53.8146V64.9002H28.0706V49.2653H32.0846V50.2442C33.2027 49.438 34.6076 48.9773 36.127 48.9773C38.5352 48.9773 40.2266 49.5819 41.2872 50.9643C42.6064 49.7259 44.3265 48.9773 46.1615 48.9773C50.7483 48.9773 52.8415 51.108 52.8415 56.1756Z" fill="#1F769D"/>
<path d="M56.8281 60.6677C58.7488 61.5028 60.2113 61.9348 62.1609 61.9348C63.9956 61.9348 64.712 61.2437 64.712 60.4372C64.712 59.5446 63.8233 59.1415 61.4152 58.6234C58.0607 57.8744 55.6239 56.7807 55.6239 53.7571C55.6239 50.9352 57.9461 48.9772 61.5585 48.9772C63.9956 48.9772 65.9449 49.5532 67.6367 50.2442L66.3178 53.1811C64.798 52.6056 63.021 52.1735 61.4725 52.1735C59.953 52.1735 59.179 52.7207 59.179 53.5556C59.179 54.4194 60.1253 54.8227 62.6194 55.341C66.2315 56.0893 68.3248 57.3564 68.3248 60.2067C68.3248 63.1727 66.0596 65.1307 62.0743 65.1307C59.3796 65.1307 57.6305 64.7562 55.337 63.6331L56.8281 60.6677Z" fill="#1F769D"/>
<path d="M188.465 13.4171L181.276 33.771C181.276 33.771 178.829 40.3764 170.952 40.1458C170.952 40.1458 162.501 40.6066 154.586 38.6866C154.586 38.6866 151.527 43.7173 144.262 43.7556C139.747 43.7795 136.92 42.3731 136.92 42.3731C135.543 41.605 137.073 40.6834 137.073 40.6834L143.096 37.3808C143.096 37.3808 144.606 36.1903 143 35.8446C141.394 35.4989 136.614 34.078 135.238 29.7C135.238 29.7 134.652 13.5451 134.804 12.3674C134.957 11.1897 135.263 5.89012 141.968 3.73951L153.566 2.56181L177.988 0.103871C177.988 0.103871 180.69 -0.126374 181.914 0.103871C181.914 0.103871 189.612 1.70435 188.962 11.3816L188.465 13.4171Z" fill="#424143"/>
<path d="M186.151 13.0588C185.167 17.233 180.497 29.2465 179.791 30.2634C178.902 31.5437 177.261 31.7355 176.267 31.7355C175.273 31.7355 173.702 31.4431 171.969 30.5707C170.672 29.9181 168.032 28.4552 165.647 26.8167C163.261 25.1785 159.948 22.4291 156.47 19.3569C152.991 16.2846 150.404 14.6391 145.559 14.9534C140.205 15.3008 136.487 18.5354 136.487 18.5354C136.487 18.5354 136.213 16.5661 136.58 11.7657C136.992 6.38403 144.804 5.07103 144.804 5.07103C144.804 5.07103 168.559 2.40832 178.201 1.5889C178.201 1.5889 188.734 2.10099 186.151 13.0588Z" fill="white"/>
<path d="M172.252 29.9561C170.919 29.2994 168.377 27.8055 165.93 26.167C163.483 24.5285 160.271 21.8148 156.702 18.7425C153.133 15.6703 150.496 13.6847 145.129 14.39C139.673 15.1069 136.442 18.1279 136.442 18.1279C136.442 18.1279 136.159 16.0269 136.586 11.3178C137.073 5.94141 144.415 4.76371 144.415 4.76371C144.415 4.76371 168.785 2.101 178.676 1.28191C178.676 1.28191 189.084 1.70469 186.832 12.7515C186.119 16.2489 182.44 24.939 180.001 29.9048C180.001 29.9048 177.758 32.6701 172.252 29.9561Z" fill="#1F769D"/>
<path d="M17.932 37.9568C17.5545 38.4305 17.0554 38.8374 16.4332 39.1778C15.8112 39.5182 15.0946 39.7839 14.2845 39.9724C13.4733 40.163 12.6533 40.257 11.8246 40.257C10.1282 40.257 8.75167 40.0294 7.6966 39.5752C6.64075 39.1209 5.81138 38.4782 5.20883 37.6446C4.94453 37.2665 4.66184 37.0485 4.36052 36.9915C4.05814 36.9346 3.79502 36.9062 3.56896 36.9062H1.53305C1.08078 36.9062 0.703269 37.0576 0.402056 37.3604C0.100075 37.6643 -0.0316808 38.0229 0.00640477 38.4394C0.0434609 39.1209 0.335922 39.8507 0.882888 40.6258C1.42882 41.4023 2.21176 42.122 3.22953 42.7841C4.24728 43.4466 5.47194 44.0051 6.90492 44.4593C8.33723 44.9134 9.97709 45.1411 11.8246 45.1411C13.6714 45.1411 15.3208 44.8947 16.7725 44.4023C18.2234 43.9112 19.4586 43.2667 20.4764 42.4717C21.4941 41.6765 22.2763 40.7492 22.8229 39.6889C23.3692 38.6297 23.6429 37.5311 23.6429 36.395C23.6429 35.4109 23.4918 34.474 23.1906 33.5838C22.8886 32.6949 22.3794 31.8798 21.664 31.1421C20.9474 30.4034 20.0044 29.7414 18.8364 29.1539C17.6677 28.5677 16.2158 28.085 14.4823 27.7059C12.8231 27.3281 11.4377 27.0059 10.3263 26.7406C9.21387 26.476 8.31872 26.1822 7.64037 25.86C6.96154 25.5391 6.47118 25.16 6.16995 24.7246C5.86797 24.2893 5.7177 23.712 5.7177 22.9925C5.7177 21.8565 6.2549 20.9669 7.32927 20.3232C8.40363 19.6794 9.80766 19.3572 11.5418 19.3572C13.2384 19.3572 14.5672 19.5759 15.5283 20.0106C16.4899 20.4466 17.215 20.9861 17.7054 21.6292C17.9689 21.9703 18.2615 22.1883 18.582 22.2822C18.9018 22.3772 19.1758 22.4245 19.402 22.4245H21.2679C21.6825 22.4245 22.0499 22.2736 22.3706 21.9703C22.6905 21.6676 22.832 21.3083 22.795 20.8912C22.7569 20.2097 22.4926 19.4994 22.003 18.7617C21.5126 18.023 20.7961 17.3326 19.8543 16.6882C18.9115 16.0451 17.7522 15.5151 16.3767 15.098C15.0003 14.6818 13.3887 14.4731 11.5418 14.4731C9.69441 14.4731 8.08274 14.7007 6.70715 15.1549C5.3304 15.6091 4.19069 16.234 3.28614 17.0293C2.38122 17.8242 1.70289 18.7333 1.25023 19.7555C0.797968 20.7774 0.571899 21.8565 0.571899 22.9925C0.571899 24.9995 1.18423 26.7502 2.40966 28.2455C3.63432 29.7414 5.77393 30.8109 8.82759 31.454C10.4483 31.7951 11.8715 32.117 13.0968 32.4193C14.3214 32.7234 15.3306 33.0442 16.1221 33.3853C16.9138 33.726 17.5076 34.1336 17.9037 34.606C18.2993 35.0797 18.4971 35.6762 18.4971 36.395C18.4971 36.9631 18.3083 37.4834 17.932 37.9568ZM50.4465 16.4047C50.3339 16.102 50.154 15.7993 49.9093 15.4963C49.6636 15.1929 49.2594 15.0411 48.6938 15.0411H47.4497C46.8842 15.0411 46.4787 15.1929 46.234 15.4963C45.9882 15.7993 45.8097 16.102 45.6967 16.4047L38.911 35.3728L32.5777 16.4047C32.4648 16.102 32.2572 15.7993 31.956 15.4963C31.6536 15.1929 31.2206 15.0411 30.655 15.0411H28.7891C28.4119 15.0411 28.091 15.1747 27.8279 15.4394C27.5637 15.7047 27.4319 16.0262 27.4319 16.4047C27.4319 16.5562 27.4504 16.7077 27.4885 16.8589L36.1402 42.9828C36.2904 43.437 36.4883 43.8162 36.7341 44.1188C36.9788 44.4222 37.3464 44.573 37.8369 44.573H39.5895C40.079 44.573 40.4469 44.4127 40.6923 44.0904C40.9371 43.7689 41.1535 43.4001 41.3425 42.9828L48.0716 24.1285L54.8007 42.9828C54.9891 43.4001 55.2055 43.7689 55.4513 44.0904C55.696 44.4127 56.0636 44.573 56.554 44.573H58.3067C58.7962 44.573 59.1638 44.4222 59.4095 44.1188C59.6539 43.8162 59.8522 43.437 60.0031 42.9828L68.6548 16.8589C68.692 16.7077 68.7115 16.5562 68.7115 16.4047C68.7115 16.0262 68.579 15.7047 68.3155 15.4394C68.0514 15.1747 67.7309 15.0411 67.3544 15.0411H65.4884C64.9228 15.0411 64.4887 15.1929 64.1876 15.4963C63.8856 15.7993 63.6787 16.102 63.5658 16.4047L57.2323 35.3728L50.4465 16.4047ZM80.1897 16.5751C80.1897 16.1589 80.0388 15.7993 79.7374 15.4963C79.435 15.1929 79.0776 15.0411 78.6629 15.0411H76.571C76.1556 15.0411 75.7979 15.1929 75.4965 15.4963C75.1942 15.7993 75.044 16.1589 75.044 16.5751V43.0398C75.044 43.4569 75.1942 43.8162 75.4965 44.1188C75.7979 44.4222 76.1556 44.573 76.571 44.573H78.6629C79.0776 44.573 79.435 44.4222 79.7374 44.1188C80.0388 43.8162 80.1897 43.4569 80.1897 43.0398V16.5751ZM80.7552 5.78394C80.7552 5.36844 80.604 5.00918 80.303 4.70516C80.0006 4.40247 79.6432 4.25096 79.2285 4.25096H76.0054C75.5901 4.25096 75.2324 4.40247 74.931 4.70516C74.6286 5.00918 74.4784 5.36844 74.4784 5.78394V9.02128C74.4784 9.4381 74.6286 9.79769 74.931 10.1004C75.2324 10.4041 75.5901 10.5553 76.0054 10.5553H79.2285C79.6432 10.5553 80.0006 10.4041 80.303 10.1004C80.604 9.79769 80.7552 9.4381 80.7552 9.02128V5.78394ZM96.9276 12.4859C96.9276 11.767 96.9928 11.0945 97.1255 10.4699C97.2573 9.845 97.4931 9.30545 97.8321 8.85124C98.1713 8.39704 98.6519 8.04704 99.2741 7.80058C99.8963 7.55512 100.697 7.43106 101.677 7.43106H104.674C105.089 7.43106 105.447 7.28021 105.749 6.97685C106.05 6.67416 106.201 6.3149 106.201 5.89774V4.08092C106.201 3.66476 106.05 3.30516 105.749 3.00214C105.447 2.69878 105.089 2.54694 104.674 2.54694H101.112C97.8321 2.54694 95.4572 3.35181 93.9871 4.96088C92.5167 6.57061 91.7818 8.98389 91.7818 12.202V15.0411H87.0317C86.6164 15.0411 86.2587 15.1929 85.9573 15.4963C85.6552 15.7993 85.505 16.1589 85.505 16.5751V18.3919C85.505 18.809 85.6552 19.1683 85.9573 19.471C86.2587 19.7743 86.6164 19.9252 87.0317 19.9252H91.7818V43.0398C91.7818 43.4569 91.932 43.8162 92.2341 44.1188C92.5352 44.4222 92.8932 44.573 93.3086 44.573H95.4005C95.8152 44.573 96.1729 44.4222 96.475 44.1188C96.7767 43.8162 96.9276 43.4569 96.9276 43.0398V19.9252H104.109C104.524 19.9252 104.881 19.7743 105.183 19.471C105.484 19.1683 105.636 18.809 105.636 18.3919V16.5751C105.636 16.1589 105.484 15.7993 105.183 15.4963C104.881 15.1929 104.524 15.0411 104.109 15.0411H96.9276V12.4859ZM118.415 19.9252H125.597C126.011 19.9252 126.369 19.7743 126.671 19.471C126.972 19.1683 127.124 18.809 127.124 18.3919V16.5751C127.124 16.1589 126.972 15.7993 126.671 15.4963C126.369 15.1929 126.011 15.0411 125.597 15.0411H118.415V5.78394C118.415 5.36844 118.264 5.00918 117.963 4.70516C117.661 4.40247 117.303 4.25096 116.889 4.25096H114.796C114.381 4.25096 114.023 4.40247 113.722 4.70516C113.42 5.00918 113.27 5.36844 113.27 5.78394V15.0411H109.085C108.67 15.0411 108.312 15.1929 108.011 15.4963C107.708 15.7993 107.558 16.1589 107.558 16.5751V18.3919C107.558 18.809 107.708 19.1683 108.011 19.471C108.312 19.7743 108.67 19.9252 109.085 19.9252H113.27V34.6345C113.27 37.8533 114.004 40.3138 115.475 42.0175C116.945 43.7216 119.32 44.573 122.599 44.573H126.162C126.577 44.573 126.935 44.4222 127.237 44.1188C127.538 43.8162 127.689 43.4569 127.689 43.0398V41.2223C127.689 40.8062 127.538 40.4465 127.237 40.1431C126.935 39.8407 126.577 39.6889 126.162 39.6889H123.165C122.184 39.6889 121.384 39.5665 120.762 39.3201C120.14 39.0743 119.659 38.7236 119.32 38.2694C118.981 37.8145 118.745 37.275 118.613 36.6511C118.481 36.0262 118.415 35.354 118.415 34.6345V19.9252Z" fill="#231F20"/>
</g>
<defs>
<clipPath id="clip0_323_19">
<rect width="189" height="70" fill="white"/>
</clipPath>
</defs>
</svg>
